<svg width="1280" height="720" xmlns="http://www.w3.org/2000/svg" xmlns:xlink="http://www.w3.org/1999/xlink" overflow="hidden"><defs><clipPath id="clip0"><rect x="0" y="0" width="1280" height="720"/></clipPath><linearGradient x1="640" y1="0" x2="640" y2="720" gradientUnits="userSpaceOnUse" spreadMethod="reflect" id="fill1"><stop offset="0" stop-color="#F9A51F"/><stop offset="0.6" stop-color="#F9A51F"/><stop offset="0.83" stop-color="#F9A51F"/><stop offset="1" stop-color="#F9A51F"/></linearGradient><clipPath id="clip2"><rect x="28" y="14" width="391" height="36"/></clipPath><clipPath id="clip3"><rect x="28" y="14" width="392" height="36"/></clipPath><clipPath id="clip4"><rect x="28" y="14" width="392" height="36"/></clipPath><linearGradient x1="-3.30562" y1="18.3023" x2="39.5883" y2="18.3023" gradientUnits="userSpaceOnUse" spreadMethod="pad" id="fill5"><stop offset="0" stop-color="#F9A51F"/><stop offset="1" stop-color="#F43C02"/></linearGradient></defs><g clip-path="url(#clip0)"><rect x="0" y="0" width="1280" height="720" fill="url(#fill1)"/><g clip-path="url(#clip2)"><g clip-path="url(#clip3)"><g clip-path="url(#clip4)"><path d="M43.2306 20.9824 51.9677 15.1068C50.9649 13.8461 49.3934 13.0545 47.5815 13.0545 44.116 13.0545 41.6825 15.9395 41.6825 19.1587 41.6825 22.378 44.204 25.0871 47.5815 25.0871 50.9591 25.0871 53.4864 22.4366 53.5392 19.3581L54.6885 19.3581C54.6005 22.9526 51.6451 26.1191 47.8161 26.1191 43.5707 26.1191 40.5391 23.064 40.5391 19.1001 40.5391 15.1361 43.4006 12.0283 47.5874 12.0283 50.1968 12.0283 52.4074 13.3653 53.633 15.3297L43.9166 21.8913 43.2247 20.9824 43.2306 20.9824Z" fill="#2F2870" transform="matrix(1.17771 0 0 1 28 14)"/><path d="M47.5933 12.1335C43.6352 12.1335 40.6505 15.1357 40.6505 19.0997 40.6505 23.0636 43.7349 26.0073 47.8279 26.0073 51.44 26.0073 54.454 23.0812 54.5889 19.4574L53.6565 19.4574C53.5392 22.6297 50.8477 25.1863 47.5933 25.1863 44.3389 25.1863 41.5829 22.4831 41.5829 19.1525 41.5829 15.8218 44.2216 12.9485 47.5933 12.9485 49.37 12.9485 50.9943 13.705 52.0615 15.0361L52.1319 15.124 43.3948 20.9996 43.9577 21.7501 53.504 15.3058C52.2199 13.3121 50.0151 12.1276 47.5992 12.1276L47.5875 12.1393 47.5933 12.1335ZM47.8279 26.2242C43.6235 26.2242 40.4453 23.1633 40.4453 19.1055 40.4453 15.0478 43.5238 11.9282 47.5933 11.9282 50.1148 11.9282 52.4134 13.1831 53.7269 15.2823L53.7796 15.3644 43.905 22.0375 43.0899 20.9585 51.827 15.083C50.8067 13.8574 49.2704 13.1538 47.5933 13.1538 44.3448 13.1538 41.7999 15.7866 41.7999 19.1525 41.7999 22.5183 44.4034 24.9811 47.5933 24.9811 50.7832 24.9811 53.3868 22.4538 53.4513 19.346L53.4513 19.2463 54.8058 19.2463 54.8058 19.3518C54.7179 23.1399 51.5866 26.2066 47.8279 26.2066L47.8279 26.2184 47.8279 26.2242Z" fill="#2F2870" transform="matrix(1.17771 0 0 1 28 14)"/><path d="M47.5953 12.2156C43.6842 12.2156 40.7405 15.171 40.7405 19.0997 40.7405 23.0285 43.7897 25.9194 47.8299 25.9194 51.3658 25.9194 54.3211 23.0696 54.5029 19.5454L53.7406 19.5454C53.5764 22.7236 50.8615 25.2744 47.5953 25.2744 44.3292 25.2744 41.5028 22.5242 41.5028 19.1467 41.5028 15.7691 44.1767 12.8548 47.5953 12.8548 49.3955 12.8548 51.0491 13.6288 52.1281 14.9775L52.2512 15.1358 43.5082 21.0114 43.9656 21.6212 53.3771 15.2707C52.1046 13.3532 49.9526 12.2098 47.5895 12.2098L47.6012 12.2098 47.5953 12.2156ZM47.8299 26.3064C43.5669 26.3064 40.3594 23.2103 40.3594 19.0997 40.3594 14.9892 43.4731 11.8403 47.5953 11.8403 50.152 11.8403 52.4682 13.1069 53.7993 15.2355L53.8989 15.3879 43.8777 22.1489 42.9629 20.9351 51.6883 15.0713C50.6856 13.9103 49.1962 13.2476 47.5895 13.2476 44.3878 13.2476 41.8781 15.8453 41.8781 19.1584 41.8781 22.4714 44.4465 24.8991 47.5895 24.8991 50.7325 24.8991 53.3008 22.4069 53.3595 19.3519L53.3595 19.1642 54.8899 19.1642 54.8899 19.3636C54.7902 23.1927 51.6238 26.3122 47.824 26.3122L47.8299 26.3064Z" fill="#2F2870" transform="matrix(1.17771 0 0 1 28 14)"/><path d="M47.5935 12.333C43.7468 12.333 40.8383 15.2473 40.8383 19.1116 40.8383 22.9758 43.8465 25.8374 47.8163 25.8374 51.2232 25.8374 54.1375 23.0755 54.3838 19.6686L53.8267 19.6686C53.6097 22.8937 50.8948 25.4034 47.5817 25.4034 44.2687 25.4034 41.3837 22.6064 41.3837 19.1819 41.3837 15.7574 44.0986 12.7904 47.5817 12.7904 49.4112 12.7904 51.1 13.5761 52.1907 14.9541L52.3901 15.2062 43.6471 21.0818 43.9755 21.5216 53.2169 15.2825C51.9503 13.4412 49.851 12.3506 47.5759 12.3506L47.5935 12.3506 47.5935 12.333ZM47.828 26.0367C43.7292 26.0367 40.6331 23.052 40.6331 19.1057 40.6331 15.1593 43.6295 12.1219 47.5935 12.1219 49.98 12.1219 52.1672 13.2829 53.4631 15.2297L53.5159 15.3177 43.9462 21.7796 43.3656 21.0056 52.1027 15.13 52.0382 15.0597C50.9827 13.7403 49.3585 12.9721 47.5876 12.9721 44.2335 12.9721 41.5948 15.6871 41.5948 19.1585 41.5948 22.6298 44.2745 25.1747 47.5876 25.1747 50.9007 25.1747 53.4749 22.7002 53.6215 19.5396L53.6215 19.4399 54.6007 19.4399 54.6007 19.5455C54.4014 23.1165 51.3639 26.0191 47.8104 26.0191L47.828 26.0309 47.828 26.0367ZM47.5935 11.946C43.5298 11.946 40.463 15.0245 40.463 19.1057 40.463 23.1869 43.6295 26.2009 47.828 26.2009 51.575 26.2009 54.7004 23.1283 54.7884 19.3637L54.7884 19.2757 53.469 19.2757 53.469 19.3578C53.4045 22.4715 50.7775 25.0106 47.5935 25.0106 44.4094 25.0106 41.7824 22.3836 41.7824 19.1643 41.7824 15.9451 44.339 13.148 47.5935 13.148 49.2295 13.148 50.7482 13.8282 51.7744 15.0069L51.8565 15.0948 43.1194 20.9704 43.911 22.0259 53.7622 15.3763 53.7153 15.3059C52.4077 13.2067 50.1208 11.9577 47.5993 11.9577L47.5935 11.946ZM47.828 26.412C43.5122 26.412 40.2578 23.269 40.2578 19.0998 40.2578 14.9306 43.4125 11.7349 47.6052 11.7349 50.197 11.7349 52.5484 13.019 53.9029 15.1828L54.0554 15.4232 43.8758 22.3015 42.8379 20.9176 51.5574 15.0538C50.5723 13.9748 49.1474 13.3591 47.611 13.3591 44.4739 13.3591 42.0052 15.9158 42.0052 19.1702 42.0052 22.4246 44.5149 24.8053 47.611 24.8053 50.7071 24.8053 53.2169 22.3601 53.2696 19.3578L53.2696 19.0705 55.0112 19.0705 55.0112 19.3754C54.9115 23.2573 51.6923 26.4179 47.8339 26.4179L47.828 26.412Z" fill="#2F2870" transform="matrix(1.17771 0 0 1 28 14)"/><path d="M65.4423 13.1718 63.4721 13.1718C60.0124 13.1718 57.6259 15.5114 57.6259 18.93 57.6259 22.3487 60.0007 24.6883 63.4721 24.6883L65.4423 24.6883 65.4423 25.8318 63.4076 25.8318C59.4495 25.8318 56.4766 23.0347 56.4766 18.93 56.4766 14.8254 59.4554 12.0283 63.4076 12.0283L65.4423 12.0283 65.4423 13.1718Z" fill="#2F2870" transform="matrix(1.17771 0 0 1 28 14)"/><path d="M63.4096 12.1335C59.4516 12.1335 56.5842 14.9891 56.5842 18.9296 56.5842 22.8701 59.4516 25.7258 63.4096 25.7258L65.3388 25.7258 65.3388 24.7876 63.4624 24.7876C59.9676 24.7876 57.5165 22.3776 57.5165 18.9179 57.5165 15.4582 59.9676 13.0541 63.4624 13.0541L65.3388 13.0541 65.3388 12.1217 63.4096 12.1217 63.4096 12.1335ZM65.5441 25.9369 63.4096 25.9369C59.3284 25.9369 56.3672 22.9874 56.3672 18.9296 56.3672 14.8719 59.3284 11.9282 63.4096 11.9282L65.5441 11.9282 65.5441 13.2769 63.4624 13.2769C60.0262 13.2769 57.7217 15.5521 57.7217 18.9355 57.7217 22.3189 60.0262 24.5941 63.4624 24.5941L65.5441 24.5941 65.5441 25.9428 65.5441 25.931 65.5441 25.9369Z" fill="#2F2870" transform="matrix(1.17771 0 0 1 28 14)"/><path d="M63.4077 12.2156C59.4966 12.2156 56.6643 15.0361 56.6643 18.9238 56.6643 22.8115 59.4966 25.6379 63.4077 25.6379L65.249 25.6379 65.249 24.8815 63.4605 24.8815C59.907 24.8815 57.4266 22.4363 57.4266 18.9238 57.4266 15.4114 59.9129 12.9779 63.4605 12.9779L65.249 12.9779 65.249 12.2156 63.4077 12.2156ZM65.6301 26.0191 63.4077 26.0191C59.2796 26.0191 56.2891 23.0344 56.2891 18.9297 56.2891 14.825 59.2855 11.8403 63.4077 11.8403L65.6301 11.8403 65.6301 13.3591 63.4605 13.3591C60.0771 13.3591 57.8078 15.599 57.8078 18.9297 57.8078 22.2603 60.0771 24.5003 63.4605 24.5003L65.6301 24.5003 65.6301 26.0191Z" fill="#2F2870" transform="matrix(1.17771 0 0 1 28 14)"/><path d="M63.4098 12.333C59.5631 12.333 56.7719 15.1124 56.7719 18.9415 56.7719 22.7706 59.5631 25.55 63.4098 25.55L65.1513 25.55 65.1513 24.993 63.4626 24.993C59.8504 24.993 57.329 22.5008 57.329 18.9415 57.329 15.3822 59.8504 12.89 63.4626 12.89L65.1513 12.89 65.1513 12.333 63.4098 12.333ZM65.3566 25.7553 63.4098 25.7553C59.4458 25.7553 56.5667 22.8879 56.5667 18.9415 56.5667 14.9951 59.4458 12.1277 63.4098 12.1277L65.3566 12.1277 65.3566 13.0953 63.4626 13.0953C59.9736 13.0953 57.5342 15.4936 57.5342 18.9415 57.5342 22.3894 59.9736 24.7936 63.4626 24.7936L65.3566 24.7936 65.3566 25.7553ZM63.4098 11.9518C59.3462 11.9518 56.3849 14.8896 56.3849 18.9356 56.3849 22.9817 59.3344 25.9253 63.4098 25.9253L65.5266 25.9253 65.5266 24.6118 63.4626 24.6118C60.0205 24.6118 57.7043 22.3367 57.7043 18.9298 57.7043 15.5229 60.0205 13.2595 63.4626 13.2595L65.5266 13.2595 65.5266 11.946 63.4098 11.946 63.4098 11.9518ZM65.7436 26.1305 63.4098 26.1305C59.223 26.1305 56.1797 23.1048 56.1797 18.9356 56.1797 14.7665 59.223 11.7407 63.4098 11.7407L65.7436 11.7407 65.7436 13.4647 63.4743 13.4647C60.1554 13.4647 57.9212 15.6636 57.9212 18.9298 57.9212 22.1959 60.1554 24.3949 63.4743 24.3949L65.7436 24.3949 65.7436 26.1364 65.7436 26.1305Z" fill="#2F2870" transform="matrix(1.17771 0 0 1 28 14)"/><path d="M78.0445 25.8311 78.0445 17.7331C78.0445 14.9126 76.0743 13.0538 73.6936 13.0538 71.3129 13.0538 69.3426 14.9126 69.3426 17.7331L69.3426 25.8311 68.2578 25.8311 68.2578 5.86475 69.3426 5.86475 69.3426 14.1445 69.3954 14.1445C70.3395 12.8075 71.9168 12.0394 73.6936 12.0394 76.7369 12.0394 79.1411 14.2617 79.1411 17.5983L79.1411 25.8428 78.0563 25.8428 78.0445 25.8311Z" fill="#2F2870" transform="matrix(1.17771 0 0 1 28 14)"/><path d="M78.1463 25.7378 79.0258 25.7378 79.0258 17.6047C79.0258 14.4441 76.7859 12.1513 73.6898 12.1513 71.9423 12.1513 70.406 12.9019 69.4737 14.2154L69.4444 14.2623 69.2274 14.2623 69.2274 5.98258 68.3478 5.98258 68.3478 25.7319 69.2274 25.7319 69.2274 17.7337C69.2274 15.0129 71.1449 12.9547 73.6839 12.9547 76.2229 12.9547 78.1404 15.007 78.1404 17.7337L78.1404 25.7437 78.1463 25.7378ZM79.2311 25.943 77.9293 25.943 77.9293 17.7337C77.9293 15.0832 76.1467 13.1599 73.678 13.1599 71.2094 13.1599 69.4268 15.0832 69.4268 17.7337L69.4268 25.943 68.125 25.943 68.125 5.77148 69.4268 5.77148 69.4268 13.9046C70.406 12.6439 71.9365 11.9344 73.678 11.9344 76.8914 11.9344 79.2194 14.3151 79.2194 17.593L79.2194 25.943 79.2311 25.943Z" fill="#2F2870" transform="matrix(1.17771 0 0 1 28 14)"/><path d="M78.2402 25.6377 78.9497 25.6377 78.9497 17.5808C78.9497 14.4671 76.7449 12.2154 73.6957 12.2154 71.9717 12.2154 70.4647 12.9601 69.55 14.2443L69.4972 14.3264 69.1454 14.3264 69.1454 6.07012 68.4358 6.07012 68.4358 25.6494 69.1454 25.6494 69.1454 17.7391C69.1454 14.9655 71.098 12.8722 73.6957 12.8722 76.2934 12.8722 78.246 14.9597 78.246 17.7391L78.246 25.6494 78.246 25.6377 78.2402 25.6377ZM79.325 26.0189 77.8531 26.0189 77.8531 17.7333C77.8531 15.1356 76.1057 13.2533 73.6898 13.2533 71.2739 13.2533 69.5265 15.1356 69.5265 17.7333L69.5265 26.0189 68.0547 26.0189 68.0547 5.67725 69.5265 5.67725 69.5265 13.6579C70.5234 12.4969 72.0128 11.8343 73.6898 11.8343 76.956 11.8343 79.325 14.2502 79.325 17.5808L79.325 26.0071 79.325 26.0189Z" fill="#2F2870" transform="matrix(1.17771 0 0 1 28 14)"/><path d="M78.3301 25.5444 78.8344 25.5444 78.8344 17.599C78.8344 14.5439 76.6707 12.3333 73.686 12.3333 71.9972 12.3333 70.5195 13.0604 69.6341 14.3152L69.5461 14.4384 69.0418 14.4384 69.0418 6.16451 68.5376 6.16451 68.5376 25.5386 69.0418 25.5386 69.0418 17.7338C69.0418 14.9016 71.0414 12.7613 73.686 12.7613 76.3306 12.7613 78.3301 14.8957 78.3301 17.7338L78.3301 25.5444ZM79.0397 25.7497 78.1249 25.7497 78.1249 17.7397C78.1249 15.0247 76.2133 12.9841 73.686 12.9841 71.1587 12.9841 69.2471 15.0306 69.2471 17.7397L69.2471 25.7497 68.3323 25.7497 68.3323 5.95928 69.2471 5.95928 69.2471 14.2273 69.4347 14.2273 69.464 14.1921C70.3964 12.8727 71.9268 12.1163 73.686 12.1163 76.788 12.1163 79.0397 14.4208 79.0397 17.5872L79.0397 25.7497ZM77.9549 25.9197 79.2214 25.9197 79.2214 17.5872C79.2214 14.3211 76.8994 11.9462 73.686 11.9462 72.0324 11.9462 70.584 12.5795 69.6048 13.7288L69.423 13.9458 69.423 5.78336 68.1564 5.78336 68.1564 25.9197 69.423 25.9197 69.423 17.728C69.423 15.0658 71.2173 13.1366 73.6919 13.1366 76.1664 13.1366 77.9607 15.0658 77.9607 17.728L77.9607 25.9197 77.949 25.9197 77.9549 25.9197ZM79.4267 26.125 77.7496 26.125 77.7496 17.7338C77.7496 15.2007 76.0433 13.3477 73.686 13.3477 71.3287 13.3477 69.6224 15.1889 69.6224 17.7338L69.6224 26.125 67.9453 26.125 67.9453 5.57227 69.6224 5.57227 69.6224 13.3829C70.6368 12.3098 72.0676 11.7293 73.686 11.7293 77.0166 11.7293 79.4267 14.1921 79.4267 17.5872L79.4267 26.125Z" fill="#2F2870" transform="matrix(1.17771 0 0 1 28 14)"/><path d="M95.6862 19.0766C95.6862 22.8998 92.7074 26.1191 88.808 26.1191 84.9085 26.1191 81.9297 22.894 81.9297 19.0766 81.9297 15.2593 84.9085 12.0342 88.808 12.0342 92.7074 12.0342 95.6862 15.2593 95.6862 19.0766ZM83.0849 19.0766C83.0849 22.2079 85.489 25.0929 88.8197 25.0929 92.1503 25.0929 94.5545 22.2196 94.5545 19.0766 94.5545 15.9336 92.1503 13.0603 88.8197 13.0603 85.489 13.0603 83.0849 15.9336 83.0849 19.0766Z" fill="#2F2870" transform="matrix(1.17771 0 0 1 28 14)"/><path d="M88.8139 13.1596C85.7119 13.1596 83.1905 15.8101 83.1905 19.0704 83.1905 22.3306 85.7119 24.9811 88.8139 24.9811 91.9158 24.9811 94.4373 22.3306 94.4373 19.0704 94.4373 15.8101 91.9158 13.1596 88.8139 13.1596ZM88.8139 25.1981C85.5946 25.1981 82.9852 22.4479 82.9852 19.0821 82.9852 15.7163 85.6064 12.9661 88.8139 12.9661 92.0214 12.9661 94.6425 15.7163 94.6425 19.0821 94.6425 22.4479 92.0214 25.1981 88.8139 25.1981ZM88.8139 12.1335C85.0845 12.1335 82.0412 15.253 82.0412 19.0704 82.0412 22.8877 85.0845 26.0073 88.8139 26.0073 92.5433 26.0073 95.5866 22.8936 95.5866 19.0704 95.5866 15.2471 92.5433 12.1335 88.8139 12.1335ZM88.8139 26.2242C84.9672 26.2242 81.8359 23.0167 81.8359 19.0704 81.8359 15.124 84.9672 11.9282 88.8139 11.9282 92.6606 11.9282 95.7918 15.1357 95.7918 19.0704 95.7918 23.005 92.6606 26.2242 88.8139 26.2242Z" fill="#2F2870" transform="matrix(1.17771 0 0 1 28 14)"/><path d="M88.814 13.2423C85.7648 13.2423 83.2785 15.8575 83.2785 19.0709 83.2785 22.2843 85.7648 24.8996 88.814 24.8996 91.8631 24.8996 94.3494 22.2843 94.3494 19.0709 94.3494 15.8575 91.8631 13.2423 88.814 13.2423ZM88.814 25.2807C85.5478 25.2807 82.8915 22.4954 82.8915 19.0768 82.8915 15.6582 85.5478 12.8728 88.814 12.8728 92.0801 12.8728 94.7306 15.6582 94.7306 19.0768 94.7306 22.4954 92.0742 25.2807 88.814 25.2807ZM88.814 12.2161C85.1256 12.2161 82.1292 15.2887 82.1292 19.065 82.1292 22.8414 85.1256 25.9257 88.814 25.9257 92.5023 25.9257 95.4987 22.8531 95.4987 19.065 95.4987 15.277 92.5023 12.2161 88.814 12.2161ZM88.814 26.3069C84.9204 26.3069 81.7422 23.0583 81.7422 19.0768 81.7422 15.0952 84.9087 11.8467 88.814 11.8467 92.7193 11.8467 95.8799 15.0894 95.8799 19.0768 95.8799 23.0642 92.7134 26.3069 88.814 26.3069Z" fill="#2F2870" transform="matrix(1.17771 0 0 1 28 14)"/><path d="M88.814 13.365C85.8176 13.365 83.3783 15.9392 83.3783 19.0881 83.3783 22.237 85.8176 24.8112 88.814 24.8112 91.8104 24.8112 94.2498 22.237 94.2498 19.0881 94.2498 15.9392 91.8104 13.365 88.814 13.365ZM88.814 25.0164C85.7003 25.0164 83.173 22.3543 83.173 19.0881 83.173 15.822 85.7003 13.1598 88.814 13.1598 91.9277 13.1598 94.455 15.822 94.455 19.0881 94.455 22.3543 91.9277 25.0164 88.814 25.0164ZM88.814 12.9839C85.6007 12.9839 83.003 15.7223 83.003 19.0881 83.003 22.4539 85.6124 25.1924 88.814 25.1924 92.0157 25.1924 94.6251 22.4539 94.6251 19.0881 94.6251 15.7223 92.0157 12.9839 88.814 12.9839ZM88.814 25.3917C85.4951 25.3917 82.786 22.5595 82.786 19.0764 82.786 15.5933 85.4892 12.761 88.814 12.761 92.1388 12.761 94.842 15.5933 94.842 19.0764 94.842 22.5595 92.1447 25.3917 88.814 25.3917ZM88.814 12.3271C85.1785 12.3271 82.229 15.3529 82.229 19.0764 82.229 22.7999 85.1785 25.8256 88.814 25.8256 92.4496 25.8256 95.3991 22.7999 95.3991 19.0764 95.3991 15.3529 92.4496 12.3271 88.814 12.3271ZM88.814 26.0309C85.0729 26.0309 82.0237 22.9055 82.0237 19.0764 82.0237 15.2473 85.0729 12.1219 88.814 12.1219 92.5552 12.1219 95.6043 15.2414 95.6043 19.0764 95.6043 22.9113 92.5552 26.0309 88.814 26.0309ZM88.814 11.9401C84.9732 11.9401 81.8537 15.1359 81.8537 19.0647 81.8537 22.9934 84.9732 26.2009 88.814 26.2009 92.6548 26.2009 95.7744 23.0051 95.7744 19.0647 95.7744 15.1242 92.6548 11.9401 88.814 11.9401ZM88.814 26.4062C84.8559 26.4062 81.6484 23.1107 81.6484 19.0647 81.6484 15.0186 84.8677 11.7231 88.814 11.7231 92.7604 11.7231 95.9796 15.0186 95.9796 19.0647 95.9796 23.1107 92.7604 26.4062 88.814 26.4062Z" fill="#2F2870" transform="matrix(1.17771 0 0 1 28 14)"/><path d="M100.557 20.9824 109.294 15.1068C108.291 13.8461 106.72 13.0545 104.908 13.0545 101.442 13.0545 99.0028 15.9395 99.0028 19.1587 99.0028 22.378 101.524 25.0871 104.908 25.0871 108.291 25.0871 110.807 22.4366 110.865 19.3581L112.015 19.3581C111.927 22.9526 108.971 26.1191 105.136 26.1191 100.891 26.1191 97.8594 23.064 97.8594 19.1001 97.8594 15.1361 100.721 12.0283 104.908 12.0283 107.517 12.0283 109.722 13.3653 110.953 15.3297L101.237 21.8913 100.545 20.9824 100.557 20.9824Z" fill="#2F2870" transform="matrix(1.17771 0 0 1 28 14)"/><path d="M104.906 12.1335C100.948 12.1335 97.963 15.1357 97.963 19.0997 97.963 23.0636 101.047 26.0073 105.14 26.0073 108.752 26.0073 111.766 23.0812 111.913 19.4574L110.969 19.4574C110.852 22.6297 108.16 25.1863 104.906 25.1863 101.651 25.1863 98.8954 22.4831 98.8954 19.1525 98.8954 15.8218 101.534 12.9485 104.906 12.9485 106.683 12.9485 108.307 13.705 109.374 15.0361L109.444 15.124 100.707 20.9996 101.27 21.7501 110.817 15.3058C109.532 13.3121 107.328 12.1276 104.918 12.1276L104.906 12.1393 104.906 12.1335ZM105.14 26.2242C100.936 26.2242 97.7578 23.1633 97.7578 19.1055 97.7578 15.0478 100.836 11.9282 104.906 11.9282 107.427 11.9282 109.72 13.1831 111.039 15.2823L111.092 15.3644 101.217 22.0375 100.402 20.9585 109.139 15.083C108.119 13.8574 106.583 13.1538 104.906 13.1538 101.657 13.1538 99.1124 15.7866 99.1124 19.1525 99.1124 22.5183 101.716 24.9811 104.906 24.9811 108.096 24.9811 110.699 22.4538 110.764 19.346L110.764 19.2463 112.118 19.2463 112.118 19.3518C112.03 23.1399 108.899 26.2066 105.14 26.2066L105.14 26.2184 105.14 26.2242Z" fill="#2F2870" transform="matrix(1.17771 0 0 1 28 14)"/><path d="M104.908 12.2156C100.997 12.2156 98.053 15.171 98.053 19.0997 98.053 23.0285 101.102 25.9194 105.142 25.9194 108.678 25.9194 111.634 23.0696 111.815 19.5454L111.053 19.5454C110.889 22.7236 108.174 25.2744 104.908 25.2744 101.642 25.2744 98.8153 22.5242 98.8153 19.1467 98.8153 15.7691 101.489 12.8548 104.908 12.8548 106.708 12.8548 108.362 13.6288 109.441 14.9775L109.564 15.1358 109.394 15.2531 100.821 21.0114 101.278 21.6212 110.69 15.2648C109.417 13.3415 107.265 12.198 104.902 12.198L104.914 12.2098 104.908 12.2156ZM105.142 26.3064C100.879 26.3064 97.6719 23.2103 97.6719 19.0997 97.6719 14.9892 100.786 11.8403 104.908 11.8403 107.464 11.8403 109.787 13.1069 111.112 15.2355L111.211 15.3879 111.059 15.4935 101.202 22.1548 100.287 20.941 109.013 15.0772C108.01 13.9161 106.52 13.2535 104.914 13.2535 101.712 13.2535 99.2023 15.8512 99.2023 19.1642 99.2023 22.4773 101.771 24.9049 104.914 24.9049 108.063 24.9049 110.625 22.4128 110.684 19.3578L110.684 19.1701 112.214 19.1701 112.214 19.3695C112.114 23.1986 108.948 26.3181 105.148 26.3181L105.137 26.3064 105.142 26.3064Z" fill="#2F2870" transform="matrix(1.17771 0 0 1 28 14)"/><path d="M104.906 12.333C101.059 12.333 98.1508 15.2473 98.1508 19.1116 98.1508 22.9758 101.153 25.8374 105.129 25.8374 108.536 25.8374 111.462 23.0755 111.696 19.6686L111.139 19.6686C110.922 22.8937 108.207 25.4034 104.894 25.4034 101.587 25.4034 98.6962 22.6064 98.6962 19.1819 98.6962 15.7574 101.411 12.7904 104.894 12.7904 106.724 12.7904 108.413 13.5761 109.503 14.9541L109.697 15.2062 109.427 15.3822 100.948 21.0877 101.276 21.5274 110.518 15.2883C109.251 13.4471 107.152 12.3564 104.877 12.3564L104.894 12.3447 104.906 12.333ZM105.141 26.0367C101.042 26.0367 97.9456 23.052 97.9456 19.1057 97.9456 15.1593 100.942 12.1219 104.906 12.1219 107.293 12.1219 109.48 13.2829 110.782 15.2297L110.834 15.3177 101.265 21.7796 100.684 21.0056 109.421 15.13 109.357 15.0597C108.301 13.7403 106.677 12.9721 104.906 12.9721 101.552 12.9721 98.9131 15.6871 98.9131 19.1585 98.9131 22.6298 101.593 25.1747 104.906 25.1747 108.219 25.1747 110.787 22.6474 110.94 19.5396L110.94 19.4399 111.919 19.4399 111.919 19.5455C111.726 23.1165 108.682 26.0191 105.129 26.0191L105.141 26.0309 105.141 26.0367ZM104.906 11.946C100.842 11.946 97.7755 15.0245 97.7755 19.1057 97.7755 23.1869 100.942 26.2009 105.141 26.2009 108.887 26.2009 112.013 23.1283 112.101 19.3637L112.101 19.2757 110.782 19.2757 110.782 19.3637C110.723 22.4774 108.09 25.0047 104.906 25.0047 101.722 25.0047 99.0949 22.3777 99.0949 19.1585 99.0949 15.9392 101.652 13.1422 104.906 13.1422 106.536 13.1422 108.061 13.8224 109.087 15.001L109.169 15.089 100.432 20.9645 101.223 22.02 111.075 15.3704 111.028 15.3001C109.72 13.2008 107.433 11.9518 104.912 11.9518L104.906 11.946ZM105.141 26.412C100.825 26.412 97.5703 23.269 97.5703 19.0998 97.5703 14.9306 100.725 11.7349 104.918 11.7349 107.51 11.7349 109.861 13.019 111.215 15.1828L111.368 15.4232 111.133 15.5815 101.188 22.2956 100.15 20.9117 108.87 15.0479C107.885 13.969 106.454 13.3533 104.924 13.3533 101.786 13.3533 99.3177 15.9099 99.3177 19.1643 99.3177 22.4187 101.827 24.7995 104.924 24.7995 108.02 24.7995 110.529 22.3542 110.582 19.352L110.582 19.0646 112.324 19.0646 112.324 19.3696C112.224 23.2514 109.005 26.412 105.146 26.412L105.141 26.412Z" fill="#2F2870" transform="matrix(1.17771 0 0 1 28 14)"/><path d="M124.222 25.8318 124.222 17.7338C124.222 14.9133 122.252 13.0545 119.871 13.0545 117.491 13.0545 115.514 14.9133 115.514 17.7338L115.514 25.8318 114.43 25.8318 114.43 17.5872C114.43 14.2448 116.834 12.0283 119.877 12.0283 122.921 12.0283 125.325 14.2507 125.325 17.5872L125.325 25.8318 124.228 25.8318 124.222 25.8318Z" fill="#2F2870" transform="matrix(1.17771 0 0 1 28 14)"/><path d="M124.33 25.738 125.209 25.738 125.209 17.6049C125.209 14.4443 122.969 12.1515 119.873 12.1515 116.777 12.1515 114.537 14.4443 114.537 17.6049L114.537 25.738 115.417 25.738 115.417 17.7398C115.417 14.972 117.293 12.9607 119.873 12.9607 122.453 12.9607 124.33 15.0131 124.33 17.7398L124.33 25.738ZM125.415 25.9432 124.113 25.9432 124.113 17.7339C124.113 15.0834 122.33 13.1601 119.862 13.1601 117.393 13.1601 115.61 15.0834 115.61 17.7339L115.61 25.9432 114.32 25.9432 114.32 17.5932C114.32 14.3094 116.654 11.9346 119.862 11.9346 123.069 11.9346 125.403 14.3153 125.403 17.5932L125.403 25.9432 125.415 25.9432Z" fill="#2F2870" transform="matrix(1.17771 0 0 1 28 14)"/><path d="M124.42 25.6384 125.129 25.6384 125.129 17.5815C125.129 14.4678 122.925 12.2161 119.881 12.2161 116.838 12.2161 114.627 14.4737 114.627 17.5815L114.627 25.6384 115.337 25.6384 115.337 17.7281C115.337 14.9545 117.289 12.8611 119.887 12.8611 122.485 12.8611 124.437 14.9486 124.437 17.7281L124.437 25.6384 124.426 25.6384 124.42 25.6384ZM125.505 26.0195 124.033 26.0195 124.033 17.734C124.033 15.1363 122.285 13.254 119.87 13.254 117.454 13.254 115.706 15.1363 115.706 17.734L115.706 26.0195 114.234 26.0195 114.234 17.5932C114.234 14.2626 116.603 11.8467 119.87 11.8467 123.136 11.8467 125.505 14.2626 125.505 17.5932L125.505 26.0195Z" fill="#2F2870" transform="matrix(1.17771 0 0 1 28 14)"/><path d="M124.51 25.5442 125.014 25.5442 125.014 17.5987C125.014 14.5436 122.85 12.333 119.866 12.333 116.881 12.333 114.717 14.5495 114.717 17.5987L114.717 25.5442 115.222 25.5442 115.222 17.7394C115.222 14.9072 117.221 12.7669 119.866 12.7669 122.51 12.7669 124.51 14.9013 124.51 17.7394L124.51 25.5442ZM125.219 25.7494 124.305 25.7494 124.305 17.7394C124.305 15.0245 122.393 12.9839 119.866 12.9839 117.338 12.9839 115.427 15.0303 115.427 17.7394L115.427 25.7494 114.512 25.7494 114.512 17.5987C114.512 14.4264 116.764 12.1277 119.866 12.1277 122.968 12.1277 125.219 14.4322 125.219 17.5987L125.219 25.7494ZM124.135 25.9195 125.401 25.9195 125.401 17.587C125.401 14.3208 123.079 11.946 119.877 11.946 116.676 11.946 114.342 14.3208 114.342 17.587L114.342 25.9195 115.609 25.9195 115.609 17.7277C115.609 15.0655 117.403 13.1363 119.877 13.1363 122.352 13.1363 124.146 15.0655 124.146 17.7277L124.146 25.9195 124.135 25.9195ZM125.606 26.1247 123.929 26.1247 123.929 17.7336C123.929 15.2004 122.223 13.3474 119.866 13.3474 117.508 13.3474 115.802 15.1887 115.802 17.7336L115.802 26.1247 114.125 26.1247 114.125 17.587C114.125 14.1977 116.541 11.729 119.866 11.729 123.19 11.729 125.606 14.1918 125.606 17.587L125.606 26.1247Z" fill="#2F2870" transform="matrix(1.17771 0 0 1 28 14)"/><path d="M130.809 20.9824 139.546 15.1068C138.543 13.8461 136.96 13.0545 135.16 13.0545 131.694 13.0545 129.255 15.9395 129.255 19.1587 129.255 22.378 131.776 25.0871 135.16 25.0871 138.543 25.0871 141.059 22.4366 141.117 19.3581L142.267 19.3581C142.179 22.9526 139.223 26.1191 135.394 26.1191 131.149 26.1191 128.117 23.064 128.117 19.1001 128.117 15.1361 130.979 12.0283 135.166 12.0283 137.775 12.0283 139.98 13.3653 141.211 15.3297L131.495 21.8913 130.803 20.9824 130.809 20.9824Z" fill="#2F2870" transform="matrix(1.17771 0 0 1 28 14)"/><path d="M135.164 12.1335C131.206 12.1335 128.221 15.1357 128.221 19.0997 128.221 23.0636 131.305 26.0073 135.398 26.0073 139.004 26.0073 142.018 23.0812 142.159 19.4574L141.227 19.4574C141.11 22.6297 138.412 25.1863 135.164 25.1863 131.915 25.1863 129.165 22.4831 129.165 19.1525 129.165 15.8218 131.804 12.9485 135.164 12.9485 136.94 12.9485 138.565 13.705 139.632 15.0361L139.702 15.124 130.965 20.9996 131.528 21.7501 141.074 15.3058C139.79 13.3121 137.597 12.1276 135.175 12.1276L135.164 12.1393 135.164 12.1335ZM135.398 26.2242C131.194 26.2242 128.016 23.1633 128.016 19.1055 128.016 15.0478 131.094 11.9282 135.164 11.9282 137.691 11.9282 139.978 13.1831 141.297 15.2823L141.35 15.3644 131.475 22.0375 130.66 20.9585 139.397 15.083C138.377 13.8574 136.841 13.1538 135.164 13.1538 131.915 13.1538 129.37 15.7866 129.37 19.1525 129.37 22.5183 131.974 24.9811 135.164 24.9811 138.354 24.9811 140.957 22.4538 141.022 19.346L141.022 19.2463 142.376 19.2463 142.376 19.3518C142.288 23.1399 139.157 26.2066 135.398 26.2066L135.398 26.2184 135.398 26.2242Z" fill="#2F2870" transform="matrix(1.17771 0 0 1 28 14)"/><path d="M135.166 12.2156C131.254 12.2156 128.311 15.171 128.311 19.0997 128.311 23.0285 131.36 25.9194 135.4 25.9194 138.936 25.9194 141.886 23.0696 142.073 19.5454L141.311 19.5454C141.147 22.7236 138.432 25.2744 135.166 25.2744 131.899 25.2744 129.073 22.5242 129.073 19.1467 129.073 15.7691 131.747 12.8548 135.166 12.8548 136.966 12.8548 138.619 13.6288 139.698 14.9775L139.822 15.1358 131.079 21.0114 131.536 21.6212 140.947 15.2648C139.675 13.3415 137.523 12.198 135.16 12.198L135.172 12.2098 135.166 12.2156ZM135.4 26.3064C131.137 26.3064 127.93 23.2103 127.93 19.0997 127.93 14.9892 131.043 11.8403 135.166 11.8403 137.722 11.8403 140.044 13.1069 141.37 15.2355L141.469 15.3879 131.448 22.1489 130.533 20.9351 139.259 15.0713C138.256 13.9103 136.766 13.2476 135.16 13.2476 131.958 13.2476 129.448 15.8453 129.448 19.1584 129.448 22.4714 132.017 24.8991 135.16 24.8991 138.303 24.8991 140.871 22.4069 140.93 19.3519L140.93 19.1642 142.46 19.1642 142.46 19.3636C142.361 23.1927 139.194 26.3122 135.394 26.3122L135.4 26.3064Z" fill="#2F2870" transform="matrix(1.17771 0 0 1 28 14)"/><path d="M135.164 12.333C131.317 12.333 128.409 15.2473 128.409 19.1116 128.409 22.9758 131.411 25.8374 135.398 25.8374 138.805 25.8374 141.72 23.0755 141.966 19.6686L141.409 19.6686C141.192 22.8937 138.477 25.4034 135.164 25.4034 131.851 25.4034 128.966 22.6064 128.966 19.1819 128.966 15.7574 131.681 12.7904 135.164 12.7904 136.993 12.7904 138.682 13.5761 139.784 14.9541L139.978 15.2062 131.235 21.0877 131.569 21.5275 140.811 15.2883C139.544 13.4471 137.445 12.3564 135.17 12.3564L135.17 12.3447 135.164 12.333ZM135.398 26.0367C131.3 26.0367 128.203 23.052 128.203 19.1057 128.203 15.1593 131.2 12.1219 135.164 12.1219 137.55 12.1219 139.749 13.2829 141.039 15.2297L141.092 15.3177 131.522 21.7796 130.942 21.0056 139.685 15.13 139.62 15.0597C138.565 13.7403 136.941 12.9721 135.17 12.9721 131.816 12.9721 129.177 15.6871 129.177 19.1585 129.177 22.6298 131.857 25.1747 135.17 25.1747 138.483 25.1747 141.051 22.6474 141.204 19.5396L141.204 19.4399 142.183 19.4399 142.183 19.5455C141.989 23.1165 138.946 26.0191 135.392 26.0191L135.392 26.0309 135.398 26.0367ZM135.164 11.946C131.1 11.946 128.033 15.0245 128.033 19.1057 128.033 23.1869 131.2 26.2009 135.398 26.2009 139.145 26.2009 142.271 23.1283 142.359 19.3637L142.359 19.2757 141.039 19.2757 141.039 19.3578C140.975 22.4715 138.348 25.0106 135.164 25.0106 131.98 25.0106 129.353 22.3836 129.353 19.1643 129.353 15.9451 131.909 13.148 135.164 13.148 136.794 13.148 138.319 13.8282 139.345 15.0069L139.427 15.0948 130.69 20.9704 131.481 22.0259 141.333 15.3763 141.286 15.3059C139.978 13.2067 137.691 11.9577 135.17 11.9577L135.164 11.946ZM135.398 26.412C131.083 26.412 127.828 23.269 127.828 19.0998 127.828 14.9306 130.983 11.7349 135.175 11.7349 137.767 11.7349 140.119 13.019 141.473 15.1828L141.626 15.4232 131.446 22.3015 130.408 20.9176 139.128 15.0538C138.143 13.9748 136.712 13.3591 135.181 13.3591 132.044 13.3591 129.576 15.9158 129.576 19.1702 129.576 22.4246 132.085 24.8053 135.181 24.8053 138.277 24.8053 140.787 22.3601 140.84 19.3578L140.84 19.0705 142.582 19.0705 142.582 19.3754C142.482 23.2573 139.263 26.4179 135.404 26.4179L135.398 26.412Z" fill="#2F2870" transform="matrix(1.17771 0 0 1 28 14)"/><path d="M144.672 25.8311 144.672 12.3091 145.757 12.3091 145.757 14.9068 145.809 14.9068C146.437 13.5405 148.044 12.3091 149.82 12.3091L151.093 12.3091 151.093 13.3353 149.938 13.3353C147.815 13.3353 145.757 15.5576 145.757 18.7534L145.757 25.8252 144.672 25.8252 144.672 25.8311Z" fill="#2F2870" transform="matrix(1.17771 0 0 1 28 14)"/><path d="M144.779 25.7378 145.659 25.7378 145.659 18.7657C145.659 15.353 147.881 13.2479 149.94 13.2479L150.989 13.2479 150.989 12.4269 149.834 12.4269C148.028 12.4269 146.492 13.7052 145.911 14.966L145.882 15.0305 145.659 15.0305 145.659 12.4328 144.779 12.4328 144.779 25.7437 144.779 25.7378ZM145.864 25.943 144.562 25.943 144.562 12.2158 145.864 12.2158 145.864 14.5907C146.556 13.3651 148.069 12.2158 149.834 12.2158L151.194 12.2158 151.194 13.4472 149.94 13.4472C147.981 13.4472 145.864 15.482 145.864 18.7598L145.864 25.9372 145.864 25.943Z" fill="#2F2870" transform="matrix(1.17771 0 0 1 28 14)"/><path d="M144.871 25.6377 145.581 25.6377 145.581 18.7536C145.581 15.288 147.85 13.1477 149.955 13.1477L150.911 13.1477 150.911 12.5027 149.832 12.5027C148.067 12.5027 146.572 13.7517 145.997 14.9831L145.944 15.0887 145.575 15.0887 145.575 12.491 144.866 12.491 144.866 25.6377 144.871 25.6377ZM145.956 26.0188 144.484 26.0188 144.484 12.1274 145.956 12.1274 145.956 14.2912C146.718 13.1477 148.173 12.1274 149.838 12.1274L151.292 12.1274 151.292 13.5406 149.944 13.5406C148.032 13.5406 145.956 15.5402 145.956 18.7712L145.956 26.0306 145.956 26.0188Z" fill="#2F2870" transform="matrix(1.17771 0 0 1 28 14)"/><path d="M144.971 25.544 145.475 25.544 145.475 18.7654C145.475 15.2412 147.798 13.054 149.944 13.054L150.8 13.054 150.8 12.6142 149.844 12.6142C148.114 12.6142 146.654 13.8398 146.097 15.036L146.015 15.206 145.475 15.206 145.475 12.6084 144.971 12.6084 144.971 25.544ZM145.681 25.7492 144.766 25.7492 144.766 12.3973 145.681 12.3973 145.681 14.9949 145.88 14.9949 145.909 14.9422C146.49 13.6756 148.026 12.3973 149.844 12.3973L151.011 12.3973 151.011 13.2534 149.95 13.2534C147.903 13.2534 145.687 15.3585 145.687 18.7654L145.687 25.7492 145.681 25.7492ZM144.596 25.9192 145.862 25.9192 145.862 18.7595C145.862 15.464 147.991 13.4293 149.961 13.4293L151.187 13.4293 151.187 12.2331 149.838 12.2331C148.085 12.2331 146.701 13.3648 146.05 14.3499L145.862 14.6372 145.862 12.2331 144.596 12.2331 144.596 25.9251 144.596 25.9192ZM146.068 26.1245 144.391 26.1245 144.391 12.0161 146.068 12.0161 146.068 13.9512C146.801 13.0071 148.155 12.0161 149.838 12.0161L151.398 12.0161 151.398 13.6287 149.944 13.6287C148.085 13.6287 146.068 15.5813 146.068 18.7536L146.068 26.1186 146.068 26.1245Z" fill="#2F2870" transform="matrix(1.17771 0 0 1 28 14)"/><path d="M154.735 30.6279C155.767 31.0325 157.027 31.3139 158.165 31.3139 161.83 31.3139 164.046 29.6603 164.046 24.9282L164.046 19.0761C164.046 15.9449 161.783 13.0599 158.523 13.0599 155.767 13.0599 153.046 15.593 153.046 19.0761 153.046 22.5593 155.772 25.0924 158.523 25.0924 160.317 25.0924 161.589 24.3536 162.756 23.128L162.756 24.4122C161.918 25.0983 160.616 26.1245 158.523 26.1245 154.823 26.1245 151.891 23.1632 151.891 19.082 151.891 15.0008 154.823 12.0396 158.523 12.0396 162.223 12.0396 165.137 15.0008 165.137 19.082L165.137 25.6729C165.184 29.8949 162.275 32.346 158.312 32.346 156.98 32.346 155.649 32.1114 154.389 31.6599L154.735 30.6337 154.735 30.622 154.735 30.6279Z" fill="#2F2870" transform="matrix(1.17771 0 0 1 28 14)"/><path d="M154.52 31.5891C155.733 32.0172 157.018 32.2342 158.308 32.2342 160.342 32.2342 162.107 31.5716 163.31 30.3695 164.465 29.2084 165.045 27.5842 165.033 25.6726L165.033 19.0816C165.033 15.1294 162.236 12.1447 158.519 12.1447 154.801 12.1447 152.004 15.1294 152.004 19.0816 152.004 23.0338 154.801 26.0185 158.519 26.0185 160.6 26.0185 161.92 24.9572 162.653 24.3649L162.653 23.3857C161.38 24.6464 160.108 25.1976 158.519 25.1976 155.821 25.1976 152.936 22.7406 152.936 19.0699 152.936 15.3991 155.81 12.9539 158.519 12.9539 162.037 12.9539 164.148 16.0676 164.148 19.0699L164.148 24.922C164.148 29.3492 162.248 31.4132 158.173 31.4132 157.123 31.4132 155.898 31.1728 154.807 30.7623L154.52 31.595 154.52 31.5891ZM158.308 32.4394C156.947 32.4394 155.628 32.2049 154.355 31.7533L154.25 31.7182 154.666 30.4926 154.754 30.5278C155.862 30.9559 157.106 31.208 158.155 31.208 162.09 31.208 163.931 29.2084 163.931 24.922L163.931 19.0699C163.931 16.1614 161.896 13.1592 158.495 13.1592 155.904 13.1592 153.136 15.534 153.136 19.0699 153.136 22.6058 155.904 24.9806 158.495 24.9806 160.114 24.9806 161.357 24.4001 162.659 23.0456L162.84 22.8579 162.84 24.447 162.811 24.4763C162.061 25.0803 160.7 26.2062 158.501 26.2062 154.666 26.2062 151.781 23.1335 151.781 19.0523 151.781 14.9711 154.672 11.9102 158.501 11.9102 162.33 11.9102 165.221 14.9828 165.221 19.0523L165.221 25.6432C165.25 27.6076 164.623 29.2847 163.439 30.4926 162.195 31.7416 160.372 32.4218 158.29 32.4218L158.308 32.4394Z" fill="#2F2870" transform="matrix(1.17771 0 0 1 28 14)"/><path d="M154.621 31.5311C155.806 31.9357 157.049 32.1409 158.304 32.1409 160.309 32.1409 162.063 31.49 163.241 30.2938 164.379 29.1504 164.965 27.5437 164.93 25.6614L164.93 19.0704C164.93 15.1593 162.174 12.2215 158.509 12.2215 154.844 12.2215 152.088 15.171 152.088 19.0704 152.088 22.9699 154.856 25.9311 158.509 25.9311 160.544 25.9311 161.846 24.9108 162.549 24.3244L162.549 23.5914C161.324 24.7642 160.051 25.2861 158.509 25.2861 155.771 25.2861 152.85 22.794 152.85 19.0822 152.85 15.3704 155.771 12.8782 158.509 12.8782 162.086 12.8782 164.226 16.033 164.226 19.0822L164.226 24.9343C164.226 29.426 162.309 31.5135 158.163 31.5135 157.143 31.5135 155.947 31.2906 154.856 30.8919L154.633 31.5545 154.615 31.5428 154.621 31.5311ZM158.304 32.5221C156.943 32.5221 155.595 32.2934 154.322 31.8243L154.141 31.7598 154.604 30.3642 154.797 30.4345C155.888 30.8626 157.119 31.103 158.163 31.103 162.086 31.103 163.851 29.1914 163.851 24.9049L163.851 19.0528C163.851 16.1854 161.846 13.2242 158.509 13.2242 155.964 13.2242 153.226 15.5639 153.226 19.0528 153.226 22.5418 155.952 24.8815 158.509 24.8815 160.11 24.8815 161.324 24.3068 162.614 22.9699L162.942 22.6239 162.942 24.471 162.866 24.5238C162.133 25.1395 160.737 26.2829 158.509 26.2829 154.633 26.2829 151.695 23.1751 151.695 19.0528 151.695 14.9306 154.627 11.8228 158.509 11.8228 162.391 11.8228 165.323 14.9306 165.323 19.0528L165.323 25.6438C165.352 27.6375 164.725 29.3321 163.529 30.5459 162.274 31.8067 160.432 32.4986 158.321 32.4986L158.304 32.5103 158.304 32.5221Z" fill="#2F2870" transform="matrix(1.17771 0 0 1 28 14)"/><path d="M154.758 31.4667C155.896 31.8537 157.11 32.0413 158.306 32.0413 160.282 32.0413 162.006 31.3963 163.173 30.2294 164.281 29.1035 164.862 27.5203 164.832 25.6673L164.832 19.0764C164.832 15.2297 162.106 12.3271 158.517 12.3271 154.928 12.3271 152.184 15.2297 152.184 19.0764 152.184 22.9231 154.911 25.8257 158.517 25.8257 160.522 25.8257 161.812 24.7995 162.452 24.2717L162.452 23.8261C161.255 24.905 160.024 25.3859 158.517 25.3859 155.732 25.3859 152.741 22.8468 152.741 19.0705 152.741 15.2942 155.72 12.7552 158.517 12.7552 162.153 12.7552 164.328 15.9627 164.328 19.0705L164.328 24.9226C164.328 29.4847 162.37 31.6015 158.159 31.6015 157.174 31.6015 155.99 31.3904 154.911 31.0034L154.758 31.4667ZM158.306 32.2465C157.033 32.2465 155.79 32.0413 154.594 31.6308L154.489 31.5957 154.776 30.7395 154.881 30.7747C155.96 31.1676 157.157 31.3904 158.159 31.3904 162.229 31.3904 164.135 29.3381 164.135 24.9168L164.135 19.0647C164.135 16.0624 162.024 12.9604 158.523 12.9604 155.825 12.9604 152.952 15.4174 152.952 19.0647 152.952 22.712 155.825 25.1689 158.523 25.1689 160.047 25.1689 161.279 24.6529 162.493 23.4977L162.674 23.3277 162.674 24.3538 162.645 24.3832C161.988 24.9109 160.651 26.0192 158.529 26.0192 154.799 26.0192 151.985 23.0286 151.985 19.0647 151.985 15.1007 154.799 12.1102 158.529 12.1102 162.258 12.1102 165.055 15.1007 165.055 19.0647L165.055 25.6556C165.084 27.5672 164.469 29.1915 163.319 30.3584 162.123 31.5663 160.341 32.2348 158.318 32.2348L158.318 32.2465 158.306 32.2465ZM154.277 31.7012 154.354 31.7305C155.626 32.1879 156.945 32.4166 158.306 32.4166 160.388 32.4166 162.199 31.7305 163.443 30.4874 164.639 29.2912 165.255 27.6141 165.225 25.6556L165.225 19.0647C165.225 15.001 162.334 11.9401 158.517 11.9401 154.7 11.9401 151.826 15.001 151.826 19.0647 151.826 23.1283 154.7 26.2009 158.517 26.2009 160.716 26.2009 162.082 25.0751 162.815 24.4711L162.862 24.4418 162.862 22.9055 162.698 23.0638C161.408 24.4242 160.153 24.9989 158.523 24.9989 155.919 24.9989 153.146 22.6181 153.146 19.0705 153.146 15.5229 155.913 13.1422 158.523 13.1422 161.936 13.1422 163.97 16.1621 163.97 19.0705L163.97 24.9226C163.97 29.2795 162.188 31.2262 158.177 31.2262 157.127 31.2262 155.884 30.9741 154.776 30.546L154.688 30.5109 154.301 31.7071 154.283 31.6953 154.277 31.7012ZM158.306 32.6277C156.928 32.6277 155.579 32.399 154.277 31.924L154.008 31.8244 154.547 30.2353 154.835 30.3408C155.913 30.763 157.139 31.0034 158.159 31.0034 162.024 31.0034 163.742 29.1211 163.742 24.905L163.742 19.0529C163.742 16.2383 161.783 13.3299 158.499 13.3299 156.001 13.3299 153.322 15.6343 153.322 19.0529 153.322 22.4716 156.001 24.776 158.499 24.776 160.059 24.776 161.267 24.2131 162.528 22.8996L163.038 22.366 163.038 24.518 162.932 24.606C162.182 25.2275 160.775 26.3827 158.499 26.3827 154.565 26.3827 151.586 23.228 151.586 19.0412 151.586 14.8544 154.547 11.6997 158.499 11.6997 162.452 11.6997 165.413 14.8544 165.413 19.0412L165.413 25.6322C165.442 27.6493 164.797 29.3615 163.572 30.6047 162.299 31.8889 160.429 32.5984 158.3 32.5984L158.3 32.6277 158.306 32.6277Z" fill="#2F2870" transform="matrix(1.17771 0 0 1 28 14)"/><path d="M170.032 7.63574C170.513 7.63574 170.888 7.9993 170.888 8.49186 170.888 8.98442 170.53 9.34798 170.032 9.34798 169.533 9.34798 169.164 8.97856 169.164 8.49186 169.164 8.00516 169.539 7.63574 170.032 7.63574ZM169.481 12.3151 170.571 12.3151 170.571 25.8371 169.481 25.8371 169.481 12.3151Z" fill="#2F2870" transform="matrix(1.17771 0 0 1 28 14)"/><path d="M170.026 7.75309C169.592 7.75309 169.276 8.0756 169.276 8.50366 169.276 8.93171 169.592 9.25423 170.026 9.25423 170.46 9.25423 170.777 8.93171 170.777 8.50366 170.777 8.0756 170.46 7.75309 170.026 7.75309ZM170.026 9.45946C169.475 9.45946 169.07 9.04899 169.07 8.50366 169.07 7.95832 169.475 7.54785 170.026 7.54785 170.577 7.54785 170.982 7.96418 170.982 8.50366 170.982 9.04313 170.577 9.45946 170.026 9.45946ZM169.592 25.7374 170.46 25.7374 170.46 12.4266 169.592 12.4266 169.592 25.7374ZM170.671 25.9427 169.381 25.9427 169.381 12.2096 170.671 12.2096 170.671 25.9427Z" fill="#2F2870" transform="matrix(1.17771 0 0 1 28 14)"/><path d="M170.026 7.82353C169.651 7.82353 169.369 8.11086 169.369 8.48614 169.369 8.86143 169.657 9.14876 170.026 9.14876 170.396 9.14876 170.701 8.86143 170.701 8.48614 170.701 8.11086 170.413 7.82353 170.026 7.82353ZM170.026 9.5299C169.428 9.5299 168.977 9.07253 168.977 8.48614 168.977 7.89976 169.428 7.44238 170.026 7.44238 170.624 7.44238 171.076 7.89976 171.076 8.48614 171.076 9.07253 170.613 9.5299 170.026 9.5299ZM169.68 25.6378 170.384 25.6378 170.384 12.5029 169.68 12.5029 169.68 25.6378ZM170.759 26.019 169.293 26.019 169.293 12.1276 170.759 12.1276 170.759 26.0307 170.759 26.019Z" fill="#2F2870" transform="matrix(1.17771 0 0 1 28 14)"/><path d="M170.03 7.94087C169.702 7.94087 169.461 8.18129 169.461 8.5038 169.461 8.82631 169.702 9.06673 170.03 9.06673 170.359 9.06673 170.599 8.82631 170.599 8.5038 170.599 8.18129 170.359 7.94087 170.03 7.94087ZM170.03 9.27196C169.596 9.27196 169.25 8.94359 169.25 8.5038 169.25 8.06402 169.596 7.73564 170.03 7.73564 170.464 7.73564 170.792 8.06402 170.792 8.5038 170.792 8.94359 170.464 9.27196 170.03 9.27196ZM170.03 7.56559C169.508 7.56559 169.086 7.97606 169.086 8.5038 169.086 9.03155 169.502 9.44201 170.03 9.44201 170.558 9.44201 170.974 9.03155 170.974 8.5038 170.974 7.97606 170.558 7.56559 170.03 7.56559ZM170.03 9.65311C169.385 9.65311 168.875 9.14296 168.875 8.5038 168.875 7.86465 169.368 7.35449 170.03 7.35449 170.693 7.35449 171.185 7.85292 171.185 8.5038 171.185 9.15469 170.675 9.65311 170.03 9.65311ZM169.778 25.5441 170.271 25.5441 170.271 12.6085 169.778 12.6085 169.778 25.5441ZM170.499 25.7493 169.573 25.7493 169.573 12.3974 170.499 12.3974 170.499 25.7493ZM169.409 25.9194 170.663 25.9194 170.663 12.2215 169.409 12.2215 169.409 25.9194ZM170.875 26.1246 169.198 26.1246 169.198 12.0162 170.875 12.0162 170.875 26.1246Z" fill="#2F2870" transform="matrix(1.17771 0 0 1 28 14)"/><path d="M186.328 25.8318 186.328 19.0708C186.328 15.9395 184.064 13.0545 180.786 13.0545 178.048 13.0545 175.309 15.5877 175.309 19.0708 175.309 22.5539 178.048 25.0871 180.786 25.0871 182.581 25.0871 183.853 24.3482 185.02 23.1227L185.02 24.4068C184.199 25.0929 182.88 26.1191 180.786 26.1191 177.086 26.1191 174.172 23.1579 174.172 19.0766 174.172 14.9954 177.092 12.0342 180.786 12.0342 184.48 12.0342 187.401 14.9954 187.401 19.0766L187.401 25.8376 186.322 25.8376 186.322 25.8259 186.328 25.8318Z" fill="#2F2870" transform="matrix(1.17771 0 0 1 28 14)"/><path d="M180.806 12.1335C177.076 12.1335 174.291 15.1181 174.291 19.0704 174.291 23.0226 177.076 26.0073 180.806 26.0073 182.888 26.0073 184.207 24.9459 184.94 24.3537L184.94 23.3744C183.667 24.6351 182.395 25.1863 180.806 25.1863 178.109 25.1863 175.224 22.7294 175.224 19.0586 175.224 15.3879 178.097 12.9427 180.806 12.9427 184.324 12.9427 186.435 16.0564 186.435 19.0586L186.435 25.7082 187.321 25.7082 187.321 19.0586C187.321 15.1064 184.524 12.1217 180.806 12.1217L180.806 12.1335ZM180.806 26.2242C176.971 26.2242 174.086 23.1516 174.086 19.0704 174.086 14.9891 176.977 11.9282 180.806 11.9282 184.635 11.9282 187.514 15.0009 187.514 19.0704L187.514 25.9369 186.212 25.9369 186.212 19.0704C186.212 16.1619 184.189 13.1596 180.794 13.1596 178.202 13.1596 175.435 15.5345 175.435 19.0704 175.435 22.6062 178.202 24.9811 180.794 24.9811 182.413 24.9811 183.667 24.4006 184.957 23.046L185.139 22.8584 185.139 24.4475 185.11 24.4768C184.359 25.0808 182.999 26.2066 180.8 26.2066L180.818 26.2242 180.806 26.2242Z" fill="#2F2870" transform="matrix(1.17771 0 0 1 28 14)"/><path d="M180.806 12.2161C177.141 12.2161 174.367 15.1656 174.367 19.065 174.367 22.9645 177.123 25.9257 180.806 25.9257 182.829 25.9257 184.131 24.9054 184.846 24.319L184.846 23.5861C183.603 24.7588 182.348 25.2807 180.806 25.2807 178.068 25.2807 175.13 22.7886 175.13 19.0768 175.13 15.365 178.062 12.8728 180.806 12.8728 184.383 12.8728 186.523 16.0276 186.523 19.0768L186.523 25.6501 187.227 25.6501 187.227 19.0768C187.227 15.1656 184.471 12.2278 180.806 12.2278L180.806 12.2161ZM180.806 26.3069C176.912 26.3069 173.992 23.199 173.992 19.0768 173.992 14.9545 176.912 11.8467 180.806 11.8467 184.7 11.8467 187.602 14.9545 187.602 19.0768L187.602 26.0254 186.136 26.0254 186.136 19.0768C186.136 16.2094 184.131 13.2481 180.806 13.2481 178.243 13.2481 175.523 15.5878 175.523 19.0768 175.523 22.5658 178.249 24.9054 180.806 24.9054 182.395 24.9054 183.621 24.3308 184.893 22.9938L185.239 22.6478 185.239 24.4949 185.163 24.5477C184.412 25.1634 183.022 26.3069 180.806 26.3069Z" fill="#2F2870" transform="matrix(1.17771 0 0 1 28 14)"/><path d="M180.804 12.333C177.198 12.333 174.471 15.2356 174.471 19.0822 174.471 22.9289 177.198 25.8315 180.804 25.8315 182.809 25.8315 184.1 24.8053 184.739 24.2776L184.739 23.8319C183.542 24.9109 182.311 25.3917 180.804 25.3917 178.007 25.3917 175.028 22.8527 175.028 19.0764 175.028 15.3001 178.007 12.761 180.804 12.761 184.44 12.761 186.615 15.9686 186.615 19.0764L186.615 25.5383 187.125 25.5383 187.125 19.0764C187.125 15.2297 184.399 12.3271 180.81 12.3271L180.804 12.333ZM180.804 26.0367C177.075 26.0367 174.26 23.0462 174.26 19.0822 174.26 15.1183 177.075 12.1277 180.804 12.1277 184.533 12.1277 187.33 15.1183 187.33 19.0822L187.33 25.7553 186.416 25.7553 186.416 19.0822C186.416 16.08 184.305 12.978 180.804 12.978 178.107 12.978 175.233 15.4349 175.233 19.0822 175.233 22.7295 178.107 25.1865 180.804 25.1865 182.329 25.1865 183.56 24.6705 184.774 23.5153L184.956 23.3452 184.956 24.3714 184.926 24.4007C184.27 24.9285 182.933 26.0367 180.81 26.0367L180.804 26.0367ZM180.804 11.946C176.969 11.946 174.084 15.0069 174.084 19.0705 174.084 23.1341 176.975 26.2068 180.804 26.2068 182.991 26.2068 184.352 25.0809 185.102 24.477L185.132 24.4476 185.132 22.9113 184.979 23.0696C183.677 24.43 182.434 25.0047 180.804 25.0047 178.201 25.0047 175.415 22.624 175.415 19.0764 175.415 15.5288 178.201 13.1481 180.804 13.1481 184.205 13.1481 186.24 16.1679 186.24 19.0764L186.24 25.9253 187.512 25.9253 187.512 19.0764C187.512 15.0127 184.621 11.9518 180.804 11.9518L180.804 11.9401 180.804 11.946ZM180.804 26.412C176.869 26.412 173.891 23.2573 173.891 19.0705 173.891 14.8837 176.852 11.729 180.804 11.729 184.756 11.729 187.718 14.8837 187.718 19.0705L187.718 26.1247 186.029 26.1247 186.029 19.0705C186.029 16.2559 184.082 13.3474 180.804 13.3474 178.288 13.3474 175.626 15.6519 175.626 19.0705 175.626 22.4891 178.288 24.7936 180.804 24.7936 182.364 24.7936 183.572 24.2307 184.833 22.9172L185.343 22.3836 185.343 24.5356 185.237 24.6236C184.475 25.2451 183.067 26.4003 180.804 26.4003L180.804 26.412Z" fill="#2F2870" transform="matrix(1.17771 0 0 1 28 14)"/><path d="M18.0739 0.816406C8.36925 0.816406 0.5 8.64461 0.5 18.3082 0.5 27.9718 8.36925 35.8 18.0739 35.8 27.7785 35.8 35.6478 27.9718 35.6478 18.3082 35.6478 8.64461 27.7726 0.816406 18.0739 0.816406Z" fill="url(#fill5)" transform="matrix(1.17771 0 0 1 28 14)"/><path d="M20.7835 24.9398C20.5607 24.9398 20.3672 24.7522 20.3672 24.5294 20.3672 24.3065 20.5548 24.1189 20.7835 24.1189 25.3632 24.1189 29.0867 20.413 29.0867 15.8509 29.0867 15.6281 29.2743 15.4404 29.503 15.4404 29.7317 15.4404 29.9135 15.6281 29.9135 15.8509 29.9135 20.8645 25.8147 24.9398 20.7835 24.9398Z" fill="#FFFFFF" transform="matrix(1.17771 0 0 1 28 14)"/><path d="M22.1328 13.2593C21.9862 13.2593 21.8514 13.1831 21.7693 13.0541 20.6552 11.1366 18.8608 9.77032 16.7264 9.20739 16.0169 9.01975 15.2898 8.92592 14.5626 8.92592 13.1143 8.92592 11.6835 9.31294 10.4228 10.0401 10.3583 10.0752 10.2879 10.0928 10.2176 10.0928 10.071 10.0928 9.93022 10.0166 9.85986 9.88759 9.80708 9.79377 9.78949 9.68236 9.81881 9.57681 9.84813 9.47126 9.91263 9.3833 10.0065 9.32467L10.0182 9.32467 10.0299 9.31294C11.4255 8.51546 12.997 8.09326 14.5802 8.09326 15.3777 8.09326 16.1693 8.19881 16.9434 8.40404 19.2948 9.03147 21.265 10.5385 22.4847 12.6436 22.5374 12.7374 22.555 12.8488 22.5257 12.9544 22.4964 13.0599 22.4319 13.1479 22.3322 13.2065 22.2677 13.2417 22.2032 13.2593 22.1328 13.2593Z" fill="#FFFFFF" transform="matrix(1.17771 0 0 1 28 14)"/><path d="M6.93825 15.1475C6.86202 15.1475 6.79165 15.1299 6.73888 15.0947 6.64506 15.0419 6.57469 14.9481 6.54537 14.8426 6.51605 14.737 6.53365 14.6256 6.58642 14.5318 7.40149 13.1245 8.58012 11.9634 9.99917 11.1659 11.3772 10.3919 12.9369 9.9873 14.5143 9.9873 16.0917 9.9873 17.6808 10.4095 19.0646 11.2011 19.1585 11.2539 19.2288 11.3418 19.2523 11.4533 19.2816 11.5588 19.264 11.6702 19.2112 11.764 19.1409 11.8872 19.0001 11.9693 18.8535 11.9693 18.7832 11.9693 18.7128 11.9517 18.6483 11.9165 17.3876 11.1953 15.9568 10.8082 14.5084 10.8082 13.0601 10.8082 11.6528 11.1777 10.4038 11.8813 9.11373 12.6026 8.04065 13.6639 7.30181 14.9422 7.23144 15.0712 7.09657 15.1416 6.93825 15.1416L6.93825 15.1475Z" fill="#FFFFFF" transform="matrix(1.17771 0 0 1 28 14)"/><path d="M24.3311 16.0214C24.1083 16.0214 23.9148 15.8337 23.9148 15.6109 23.9148 11.0547 20.1913 7.34291 15.6116 7.34291 15.3888 7.34291 15.1953 7.15527 15.1953 6.93244 15.1953 6.70962 15.383 6.52197 15.6116 6.52197 20.6487 6.52197 24.7416 10.5973 24.7416 15.6109 24.7416 15.8337 24.554 16.0214 24.3311 16.0214Z" fill="#FFFFFF" transform="matrix(1.17771 0 0 1 28 14)"/><path d="M23.5594 22.7586C23.4128 22.7586 23.2779 22.6824 23.1958 22.5593 23.143 22.4654 23.1254 22.354 23.1547 22.2485 23.1841 22.1429 23.2486 22.055 23.3483 21.9963 25.2657 20.8939 26.6379 19.1055 27.2125 16.971 27.7872 14.8366 27.494 12.6084 26.3916 10.7026 26.3388 10.6088 26.3212 10.4974 26.3505 10.3918 26.3799 10.2863 26.4444 10.1983 26.544 10.1397 26.6085 10.1045 26.6789 10.0869 26.7493 10.0869 26.8959 10.0869 27.0366 10.1631 27.107 10.2921 28.3208 12.3855 28.6433 14.8307 28.0159 17.1763 27.3826 19.5335 25.8756 21.4979 23.7646 22.7117 23.7001 22.7469 23.6356 22.7645 23.5594 22.7645L23.5594 22.7586Z" fill="#FFFFFF" transform="matrix(1.17771 0 0 1 28 14)"/><path d="M24.8428 19.493C24.7666 19.493 24.6962 19.4754 24.6435 19.4402 24.5497 19.3875 24.4793 19.2936 24.45 19.1881 24.4206 19.0826 24.4382 18.9711 24.491 18.8773 25.5934 16.9716 25.8925 14.7492 25.3178 12.6148 24.7432 10.4745 23.371 8.68599 21.4477 7.57773 21.2542 7.46632 21.1838 7.20831 21.2952 7.0148 21.3656 6.89166 21.5063 6.80957 21.6529 6.80957 21.7233 6.80957 21.7937 6.82716 21.8582 6.86234 23.9691 8.07616 25.4761 10.0405 26.1094 12.3919 26.7369 14.7375 26.4143 17.1827 25.2005 19.2819 25.1302 19.4109 24.9953 19.4813 24.837 19.4813L24.8428 19.493Z" fill="#FFFFFF" transform="matrix(1.17771 0 0 1 28 14)"/><path d="M6.64289 21.1635C6.42007 21.1635 6.22656 20.9758 6.22656 20.753 6.22656 15.7394 10.3254 11.6641 15.3565 11.6641 15.5794 11.6641 15.767 11.8517 15.767 12.0745 15.767 12.2974 15.5794 12.485 15.3565 12.485 10.7769 12.485 7.05336 16.1909 7.05336 20.753 7.05336 20.9758 6.86572 21.1635 6.63703 21.1635L6.64289 21.1635Z" fill="#FFFFFF" transform="matrix(1.17771 0 0 1 28 14)"/><path d="M21.6486 26.6284C20.0654 26.6284 18.488 26.2062 17.0924 25.4087 16.9986 25.356 16.9341 25.268 16.9047 25.1566 16.8754 25.0511 16.893 24.9396 16.9458 24.8458 17.0162 24.7168 17.1569 24.6406 17.3035 24.6406 17.3739 24.6406 17.4442 24.6582 17.5087 24.6934 18.7694 25.4205 20.2002 25.8075 21.6486 25.8075 22.3757 25.8075 23.1028 25.7137 23.8123 25.526 25.9468 24.9572 27.7411 23.591 28.8552 21.6794 28.9256 21.5562 29.0663 21.4741 29.2129 21.4741 29.2833 21.4741 29.3537 21.4917 29.4182 21.5269 29.512 21.5797 29.5823 21.6676 29.6117 21.779 29.6292 21.8494 29.6292 21.9256 29.6117 21.996L29.5647 22.0781C28.3451 24.1832 26.3807 25.6902 24.0234 26.3176 23.267 26.5229 22.4695 26.6284 21.6486 26.6284Z" fill="#FFFFFF" transform="matrix(1.17771 0 0 1 28 14)"/><path d="M21.5729 28.5112C20.7871 28.5112 19.9897 28.4057 19.198 28.2005 16.8467 27.573 14.8764 26.066 13.6567 23.9609 13.604 23.8671 13.5864 23.7557 13.6157 23.6501 13.645 23.5446 13.7095 23.4566 13.8033 23.398 13.8678 23.3628 13.9382 23.3452 14.0086 23.3452 14.1552 23.3452 14.2959 23.4214 14.3663 23.5504 15.4804 25.4621 17.2747 26.8342 19.4091 27.4088 20.1187 27.5965 20.8516 27.6903 21.5729 27.6903 23.0213 27.6903 24.452 27.3033 25.7128 26.5762 25.7773 26.541 25.8476 26.5234 25.918 26.5234 26.0646 26.5234 26.2053 26.5996 26.2757 26.7286 26.3285 26.8225 26.346 26.9339 26.3167 27.0394 26.2874 27.1391 26.2288 27.2212 26.1408 27.2798L26.135 27.2798 26.1174 27.2916C24.7394 28.089 23.162 28.5112 21.567 28.5112L21.5729 28.5112Z" fill="#FFFFFF" transform="matrix(1.17771 0 0 1 28 14)"/><path d="M14.4882 29.7894C14.412 29.7894 14.3416 29.7718 14.2888 29.7366 12.1779 28.5228 10.665 26.5584 10.0317 24.207 9.40428 21.8615 9.72679 19.4163 10.9406 17.3171 11.011 17.1939 11.1517 17.1118 11.2983 17.1118 11.3687 17.1118 11.439 17.1294 11.5035 17.1646 11.5973 17.2174 11.6677 17.3053 11.6912 17.4167 11.7205 17.5223 11.7029 17.6337 11.6501 17.7275 10.5419 19.6333 10.2487 21.8556 10.8233 23.9901 11.398 26.1304 12.7701 27.9188 14.6934 29.0271 14.7873 29.0799 14.8576 29.1678 14.887 29.2793 14.9163 29.3848 14.8987 29.4962 14.8459 29.59 14.7755 29.719 14.6407 29.7894 14.4823 29.7894L14.4882 29.7894Z" fill="#FFFFFF" transform="matrix(1.17771 0 0 1 28 14)"/><path d="M20.5362 30.0941C15.4992 30.0941 11.4062 26.0129 11.4062 21.0052 11.4062 20.7824 11.5939 20.5947 11.8226 20.5947 12.0513 20.5947 12.2389 20.7824 12.2389 21.0052 12.2389 25.5672 15.9624 29.2732 20.5421 29.2732 20.7649 29.2732 20.9584 29.4608 20.9584 29.6837 20.9584 29.9065 20.7708 30.0941 20.5421 30.0941L20.5362 30.0941Z" fill="#FFFFFF" transform="matrix(1.17771 0 0 1 28 14)"/><path d="M9.41353 26.5169C9.26693 26.5169 9.13207 26.4407 9.04997 26.3117 7.83616 24.2242 7.51365 21.779 8.14108 19.4276 8.77437 17.0703 10.2814 15.1059 12.3924 13.8921 12.4569 13.8569 12.5272 13.8394 12.5976 13.8394 12.7442 13.8394 12.8849 13.9156 12.9553 14.0446 13.0081 14.1384 13.0256 14.2498 12.9963 14.3554 12.967 14.4609 12.9025 14.5489 12.8028 14.6075 10.8853 15.7099 9.51321 17.4925 8.93856 19.6328 8.36391 21.7672 8.6571 23.9955 9.7595 25.9071 9.81227 26.0009 9.82986 26.1123 9.80054 26.2179 9.77122 26.3234 9.70672 26.4114 9.6129 26.47 9.5484 26.5052 9.4839 26.5228 9.40767 26.5228L9.41353 26.5169Z" fill="#FFFFFF" transform="matrix(1.17771 0 0 1 28 14)"/><path d="M228.894 24.7765C228.894 26.1589 228.346 27.1584 227.245 27.8033 226.371 28.3111 225.117 28.5569 223.485 28.5569 221.853 28.5569 220.599 28.2909 219.713 27.7469 218.669 27.0859 218.133 26.0461 218.133 24.6113L218.133 21.1372C219.596 20.8913 222.727 20.3996 222.727 20.3996L222.727 24.7443C222.727 25.0466 222.784 25.2964 222.917 25.4818 223.054 25.635 223.255 25.7075 223.525 25.7075 223.795 25.7075 223.981 25.635 224.118 25.4818 224.255 25.2964 224.307 25.0466 224.307 24.7443L224.307 21.0042 228.902 21.0042 228.902 24.7846 228.89 24.7725 228.894 24.7765ZM252.322 28.295 247.747 28.295 247.747 27.6743C247.502 27.9202 247.119 28.1297 246.607 28.295 246.131 28.4683 245.563 28.561 244.898 28.561 243.931 28.561 243.109 28.3151 242.488 27.8073 241.867 27.2955 241.557 26.6949 241.557 25.9695L241.557 18.6021C243.056 18.5054 244.592 18.4127 246.151 18.3401L246.151 24.8209C246.151 25.3851 246.417 25.6753 246.945 25.6753 247.211 25.6753 247.401 25.6189 247.534 25.4859 247.663 25.3206 247.743 25.111 247.743 24.841L247.743 18.2474C249.243 18.1749 250.778 18.1104 252.318 18.058L252.318 28.303 252.326 28.295 252.322 28.295ZM258.815 25.6672C259.024 25.6672 259.218 25.6108 259.326 25.4778 259.5 25.3126 259.572 25.103 259.572 24.8209L259.572 20.0208C259.254 20.1014 258.988 20.186 258.778 20.2787 258.577 20.3714 258.428 20.4641 258.323 20.5689 258.093 20.7946 257.976 21.0767 257.976 21.4233L257.976 24.8249C257.976 25.107 258.049 25.3166 258.186 25.4818 258.327 25.6108 258.524 25.6713 258.77 25.6713L258.815 25.6713 258.815 25.6672ZM258.778 28.4401C258.359 28.5207 257.831 28.5569 257.162 28.5569 255.792 28.5569 254.825 28.3111 254.24 27.8396 253.672 27.3479 253.39 26.6103 253.39 25.6309L253.39 21.8908C253.39 20.3996 254.414 19.1462 256.469 18.1628 256.679 18.0701 256.888 17.9734 257.074 17.8968L258.782 17.8605C260.56 17.8162 262.353 17.7799 264.171 17.7678L264.171 28.295 260.112 28.295 260.112 27.5776C259.883 27.9967 259.54 28.2587 259.089 28.3715 258.988 28.3957 258.891 28.4199 258.786 28.4401L258.778 28.4401ZM240.743 24.7765C240.743 25.9655 240.34 26.8763 239.582 27.501L240.815 29.7902 237.015 29.7902 236.35 28.5449C236.047 28.565 235.745 28.565 235.399 28.565 233.746 28.565 232.477 28.299 231.562 27.7549 230.482 27.0939 229.946 26.0541 229.946 24.6193L229.946 19.5936C231.445 19.4203 232.984 19.2913 234.54 19.1381L234.54 24.7483C234.54 25.0506 234.597 25.3005 234.734 25.4859 234.863 25.639 235.072 25.7116 235.342 25.7116 235.612 25.7116 235.798 25.639 235.927 25.4859 236.064 25.3005 236.136 25.0506 236.136 24.7483L236.136 19.0011C237.635 18.8923 239.151 18.7754 240.731 18.6626L240.731 24.7846 240.739 24.7765 240.743 24.7765ZM274.307 28.295 271.401 28.295C269.41 28.295 268.197 28.029 267.738 27.501 267.282 26.9569 267.073 25.7196 267.073 23.7931L267.073 17.7477 269.467 17.7275 271.667 17.7477 271.667 23.7569C271.667 24.305 271.857 24.6798 272.215 24.9055 272.481 25.0586 272.901 25.1312 273.449 25.1312L274.303 25.1312 274.303 28.295 274.307 28.295ZM291.533 18.2595 291.533 28.295 286.938 28.295 286.938 18.0661C288.494 18.1225 290.017 18.183 291.533 18.2555M286.043 24.7765C286.043 26.175 285.511 27.1947 284.451 27.8033 283.593 28.3111 282.36 28.5569 280.727 28.5569 279.095 28.5569 277.785 28.2909 276.89 27.7469 275.81 27.0859 275.254 26.0461 275.254 24.6113L275.254 17.7719C276.814 17.792 278.349 17.8283 279.849 17.8444L279.849 24.7443C279.849 25.0466 279.921 25.2964 280.054 25.4818 280.191 25.635 280.373 25.7075 280.647 25.7075 280.921 25.7075 281.122 25.635 281.251 25.4818 281.38 25.2964 281.445 25.0466 281.445 24.7443L281.445 17.8887C283 17.925 284.524 17.9814 286.039 18.0379L286.039 24.7846 286.047 24.7765 286.043 24.7765ZM303.265 28.295 298.67 28.295 298.67 18.6948C300.222 18.7915 301.765 18.9205 303.265 19.0374L303.265 28.299 303.265 28.2909 303.265 28.295ZM309.584 25.6672 309.617 25.6672C309.842 25.6672 310.02 25.6108 310.14 25.4778 310.294 25.3126 310.366 25.103 310.366 24.8209L310.366 20.0208C310.056 20.1014 309.802 20.186 309.584 20.2868 309.387 20.3714 309.226 20.4722 309.121 20.577 308.895 20.8027 308.802 21.0848 308.802 21.4314L308.802 24.8329C308.802 25.1151 308.855 25.3246 308.988 25.4899 309.141 25.6189 309.338 25.6793 309.584 25.6793L309.584 25.6713 309.584 25.6672ZM309.584 28.4401C309.173 28.5207 308.629 28.5569 307.96 28.5569 306.59 28.5569 305.622 28.3111 305.058 27.8396 304.49 27.3479 304.2 26.6103 304.2 25.6309L304.2 21.8908C304.2 20.8913 304.639 20.0167 305.554 19.2429 306.924 19.3679 308.27 19.5009 309.588 19.6419 311.442 19.8394 313.232 20.053 314.973 20.2868L314.973 28.299 310.906 28.299 310.906 27.5816C310.681 28.0008 310.342 28.2627 309.878 28.3756 309.786 28.3998 309.693 28.4239 309.588 28.4441L309.584 28.4401ZM320.68 28.2909 316.089 28.2909 316.089 20.4278C317.685 20.6374 319.217 20.8631 320.68 21.109L320.68 28.2909Z" fill="#2F2870" transform="matrix(1.17771 0 0 1 28 14)"/><path d="M247.757 16.5343 247.757 9.63447 252.331 9.63447 252.331 16.3006C252.738 16.2804 253.153 16.2643 253.564 16.2442L253.564 13.2779C253.564 11.8955 254.112 10.8959 255.253 10.2511 256.091 9.78359 257.276 9.52565 258.779 9.50147L259.049 9.50147C260.686 9.50147 261.899 9.78359 262.713 10.3357 263.68 10.9645 264.176 12.0164 264.176 13.4552L264.176 15.9661C265.139 15.9459 266.106 15.9419 267.082 15.9338L267.082 12.3912 265.034 12.3912 265.034 9.63447 267.082 9.63447 267.082 5.89032 271.676 5.89032 271.676 9.63447 274.143 9.63447 274.143 12.3912 271.676 12.3912 271.676 15.9338C272.877 15.9419 274.074 15.954 275.263 15.9701L275.263 13.4471C275.263 12.0526 275.811 11.0088 276.9 10.3639 277.818 9.78762 279.064 9.5055 280.66 9.49744L280.732 9.49744C282.232 9.49744 283.481 9.83598 284.489 10.4969 285.528 11.1176 286.044 12.0446 286.044 13.2779L286.044 16.2804C286.339 16.2925 286.641 16.3046 286.939 16.3167L286.939 9.62641 291.534 9.62641 291.534 10.2471C291.739 10.0859 291.997 9.9448 292.315 9.82389 292.42 9.78762 292.533 9.75134 292.65 9.7191 293.162 9.56595 293.73 9.49341 294.375 9.49341 295.342 9.49341 296.12 9.75537 296.749 10.2914 297.398 10.8033 297.7 11.4279 297.7 12.1655L297.7 16.9898C298.018 17.0139 298.349 17.0381 298.667 17.0704L298.667 9.63447 303.262 9.63447 303.262 17.4855C304.773 17.6346 306.256 17.7918 307.687 17.9651 309.456 17.0865 310.363 16.4537 310.363 16.0749L310.363 13.3182C310.363 13.0199 310.303 12.7902 310.178 12.637 310.045 12.4919 309.839 12.3912 309.569 12.3912 309.364 12.3912 309.166 12.4879 309.025 12.637 308.872 12.7862 308.799 13.0119 308.799 13.3182L308.799 17.0018 304.35 17.0018 304.35 13.2819C304.35 11.8995 304.918 10.9 306.043 10.2551 306.949 9.76344 308.203 9.50147 309.839 9.50147 311.475 9.50147 312.689 9.78359 313.503 10.3357 314.47 10.9645 314.966 12.0164 314.966 13.4552L314.966 18.9565C315.038 18.9686 315.119 18.9807 315.191 18.9928 315.49 19.0412 315.788 19.0895 316.086 19.1339L316.086 5.26966 320.677 5.26966 320.677 19.9722C325.432 20.9314 329.269 22.0115 331.998 23.2004 325.852 21.4795 317.485 20.0447 307.574 18.9888 305.442 18.7631 303.238 18.5575 300.969 18.3681 298.176 18.1424 295.29 17.9369 292.315 17.7676 288.555 17.554 284.65 17.3928 280.648 17.284 276.98 17.1872 273.224 17.1308 269.407 17.1308 265.8 17.1308 262.249 17.1752 258.775 17.2678 250.433 17.4774 242.537 17.9288 235.347 18.5858 233.949 18.7147 232.574 18.8518 231.228 18.9928 228.54 19.279 225.957 19.5933 223.506 19.9359 216.933 20.8508 211.278 21.9511 206.805 23.2004 209.525 22.0115 213.374 20.9233 218.122 19.9722L218.122 13.4512C218.122 12.0567 218.634 11.0128 219.677 10.368 220.572 9.77956 221.842 9.49744 223.478 9.49744L223.502 9.49744C225.106 9.49744 226.344 9.76747 227.234 10.2511 228.339 10.8758 228.887 11.8753 228.887 13.2779L228.887 18.2311C229.237 18.1868 229.596 18.1465 229.955 18.1021L229.955 13.4471C229.955 12.0526 230.487 11.0088 231.571 10.3639 232.49 9.78762 233.743 9.49744 235.351 9.49744L235.408 9.49744C236.907 9.49744 238.156 9.83598 239.188 10.4969 240.212 11.1176 240.748 12.0446 240.748 13.2779L240.748 17.018C241.018 16.9978 241.292 16.9736 241.57 16.9575L241.57 9.63447 246.165 9.63447 246.165 16.6351C246.697 16.6028 247.225 16.5666 247.761 16.5384M292.328 12.4637C292.07 12.4637 291.864 12.5242 291.731 12.6532 291.594 12.7821 291.538 12.9917 291.538 13.2779L291.538 16.5545 292.319 16.6028 293.109 16.6512 293.109 13.3101C293.109 12.7459 292.864 12.4557 292.332 12.4557L292.319 12.4557 292.328 12.4557 292.328 12.4637ZM280.66 16.087 281.454 16.1112 281.454 13.3182C281.454 13.0199 281.397 12.7902 281.26 12.637 281.131 12.4919 280.914 12.3912 280.656 12.3912 280.446 12.3912 280.253 12.4879 280.108 12.637 279.955 12.7862 279.862 13.0119 279.862 13.3182L279.862 16.0628 280.656 16.087 280.66 16.087ZM258.787 16.0668 259.589 16.0467 259.589 13.3141C259.589 13.0159 259.517 12.7862 259.38 12.633 259.243 12.4879 259.057 12.3872 258.787 12.3872 258.562 12.3872 258.368 12.4839 258.219 12.633 258.066 12.7821 257.989 13.0078 257.989 13.3141L257.989 16.091 258.783 16.0668 258.787 16.0668ZM235.359 17.5016 236.153 17.421 236.153 13.3141C236.153 13.0159 236.081 12.7862 235.944 12.633 235.807 12.4879 235.625 12.3872 235.359 12.3872 235.13 12.3872 234.94 12.4839 234.787 12.633 234.634 12.7821 234.557 13.0078 234.557 13.3141L234.557 17.5822 235.351 17.5016 235.359 17.5016ZM223.518 17.5862 224.308 17.5862 224.308 13.3141C224.308 13.0159 224.252 12.7862 224.115 12.633 223.978 12.4879 223.796 12.3872 223.53 12.3872L223.518 12.3872C223.297 12.3872 223.111 12.4839 222.958 12.633 222.805 12.7821 222.736 13.0078 222.736 13.3141L222.736 17.5862 223.518 17.5862ZM300.973 8.61077 298.671 8.61077 298.671 5.26562 303.266 5.26562 303.266 8.61077 300.964 8.61077 300.969 8.61077 300.973 8.61077Z" fill="#2F2870" transform="matrix(1.17771 0 0 1 28 14)"/><path d="M221.966 5.65667C221.676 5.76146 221.116 5.90655 220.515 5.90655 219.75 5.90655 219.165 5.70906 218.738 5.30604 218.339 4.92719 218.109 4.3307 218.109 3.64958 218.117 2.21883 219.129 1.31201 220.624 1.31201 221.18 1.31201 221.616 1.42889 221.825 1.52562L221.648 2.18659C221.402 2.06971 221.1 1.9891 220.62 1.9891 219.653 1.9891 218.972 2.5614 218.972 3.60525 218.972 4.6491 219.601 5.23752 220.544 5.23752 220.846 5.23752 221.06 5.19319 221.164 5.15288L221.164 4.0244 220.362 4.0244 220.362 3.37552 221.958 3.37552 221.958 5.6607 221.966 5.65667Z" fill="#2F2870" transform="matrix(1.17771 0 0 1 28 14)"/><path d="M225.436 3.41166 225.923 3.41166C226.48 3.41166 226.822 3.11745 226.822 2.67009 226.822 2.18645 226.476 1.94464 225.94 1.94464 225.682 1.94464 225.508 1.96479 225.428 1.98897L225.428 3.41166 225.436 3.41166ZM224.614 1.42876C224.928 1.3683 225.383 1.33203 225.859 1.33203 226.512 1.33203 226.943 1.43682 227.253 1.69476 227.499 1.90433 227.64 2.21467 227.64 2.60157 227.64 3.18597 227.245 3.57691 226.814 3.72603L226.814 3.74618C227.141 3.87112 227.338 4.18145 227.443 4.61672 227.592 5.17693 227.713 5.69684 227.802 5.87418L226.955 5.87418C226.887 5.74118 226.778 5.37039 226.653 4.81421 226.516 4.22578 226.306 4.04039 225.839 4.0283L225.424 4.0283 225.424 5.88224 224.602 5.88224 224.602 1.44085 224.61 1.42876 224.614 1.42876Z" fill="#2F2870" transform="matrix(1.17771 0 0 1 28 14)"/><path d="M231.061 1.36035 231.061 3.9881C231.061 4.87074 231.431 5.2778 231.988 5.2778 232.584 5.2778 232.943 4.87477 232.943 3.9881L232.943 1.36035 233.769 1.36035 233.769 3.93168C233.769 5.3181 233.056 5.93877 231.963 5.93877 230.871 5.93877 230.234 5.35438 230.234 3.94377L230.234 1.36841 231.061 1.36841 231.061 1.36035Z" fill="#2F2870" transform="matrix(1.17771 0 0 1 28 14)"/><path d="M237.33 3.51645C237.435 3.54869 237.564 3.56079 237.733 3.56079 238.35 3.56079 238.725 3.25448 238.725 2.73054 238.725 2.20661 238.374 1.96882 237.806 1.96882 237.576 1.96882 237.415 1.98897 237.33 2.01315L237.33 3.52451 237.33 3.51645ZM236.508 1.42473C236.81 1.3683 237.217 1.33203 237.774 1.33203 238.378 1.33203 238.813 1.461 239.104 1.69879 239.374 1.92045 239.547 2.27512 239.547 2.69427 239.547 3.11342 239.41 3.46809 239.164 3.70588 238.83 4.03233 238.318 4.18951 237.733 4.18951 237.58 4.18951 237.443 4.18145 237.33 4.15727L237.33 5.86208 236.508 5.86208 236.508 1.42473Z" fill="#2F2870" transform="matrix(1.17771 0 0 1 28 14)"/><path d="M242.703 3.63359C242.703 4.5525 243.166 5.28601 243.96 5.28601 244.754 5.28601 245.206 4.54444 245.206 3.60538 245.206 2.75902 244.778 1.95296 243.96 1.95296 243.142 1.95296 242.703 2.70663 242.703 3.63359ZM246.084 3.57314C246.084 5.0845 245.165 5.94295 243.92 5.94295 242.674 5.94295 241.828 4.96762 241.828 3.65375 241.828 2.26732 242.711 1.29199 243.98 1.29199 245.25 1.29199 246.076 2.28747 246.076 3.57717L246.084 3.57717 246.084 3.57314Z" fill="#2F2870" transform="matrix(1.17771 0 0 1 28 14)"/></g></g></g><text fill="#FFFFFF" font-family="Berlin Sans FB,Berlin Sans FB_MSFontService,sans-serif" font-weight="400" font-size="48" transform="translate(28.8857 102)">Balanço energético</text><text fill="#FFFFFF" font-family="Berlin Sans FB,Berlin Sans FB_MSFontService,sans-serif" font-style="oblique" font-weight="400" font-size="16" transform="translate(28.8857 128)">Dados da ONS</text><path d="M731 29.6302C731 24.8639 734.864 21 739.63 21L987.37 21C992.136 21 996 24.8639 996 29.6302L996 83.3698C996 88.1361 992.136 92 987.37 92L739.63 92C734.864 92 731 88.1361 731 83.3698Z" fill="#F8F8F8" fill-rule="evenodd"/><path d="M1021 29.395C1021 23.654 1025.65 19 1031.4 19L1241.6 19C1247.35 19 1252 23.654 1252 29.395L1252 153.605C1252 159.346 1247.35 164 1241.6 164L1031.4 164C1025.65 164 1021 159.346 1021 153.605Z" fill="#F8F8F8" fill-rule="evenodd"/><path d="M28 187.526C28 181.713 32.7127 177 38.5261 177L689.474 177C695.287 177 700 181.713 700 187.526L700 499.474C700 505.287 695.287 510 689.474 510L38.5261 510C32.7127 510 28 505.287 28 499.474Z" fill="#FFFFFF" fill-rule="evenodd"/><path d="M711.5 187.058C711.5 181.227 716.227 176.5 722.058 176.5L1247.94 176.5C1253.77 176.5 1258.5 181.227 1258.5 187.058L1258.5 499.942C1258.5 505.773 1253.77 510.5 1247.94 510.5L722.058 510.5C716.227 510.5 711.5 505.773 711.5 499.942Z" stroke="#FFFFFF" stroke-width="1.33333" stroke-miterlimit="8" fill="#FFFFFF" fill-rule="evenodd"/><path d="M28 526.847C28 523.618 30.6179 521 33.8473 521L1252.15 521C1255.38 521 1258 523.618 1258 526.847L1258 700.153C1258 703.382 1255.38 706 1252.15 706L33.8473 706C30.6179 706 28 703.382 28 700.153Z" fill="#F8F8F8" fill-rule="evenodd"/><path d="M731 110.414C731 106.32 734.32 103 738.414 103L988.586 103C992.68 103 996 106.32 996 110.414L996 156.586C996 160.68 992.68 164 988.586 164L738.414 164C734.32 164 731 160.68 731 156.586Z" fill="#F8F8F8" fill-rule="evenodd"/></g></svg>